{
	"asset":{
		"version":"2.0",
		"generator":"Created using the official Cinema 4D glTF Exporter 1.000x284978"
	},
	"scenes":[{
		"nodes":[0]
	}],
	"nodes":[{
		"name":"X_GEO",
		"translation":[14.666068077087403,
		4.857728004455566,
		0.1276625245809555],
		"rotation":[0.0,
		0.0,
		0.0,
		-1.0],
		"scale":[1.0,
		1.0,
		1.0],
		"children":[1,
		2,
		3,
		4,
		5,
		6,
		7,
		8,
		9,
		10,
		11,
		12]
	},
	{
		"name":"Polygon",
		"translation":[-32.73372268676758,
		-9.220002174377442,
		-4.046106338500977],
		"rotation":[-0.7071067690849304,
		0.0,
		0.0,
		-0.7071067690849304],
		"scale":[1.0,
		1.0,
		1.0],
		"mesh":0
	},
	{
		"name":"Polygon",
		"translation":[-3.9219088554382326,
		-15.220001220703125,
		6.244115829467773],
		"rotation":[-0.7071067690849304,
		0.0,
		0.0,
		-0.7071067690849304],
		"scale":[1.0,
		1.0,
		1.0],
		"mesh":1
	},
	{
		"name":"Polygon",
		"translation":[-51.58366775512695,
		33.03506851196289,
		4.695887088775635],
		"rotation":[-0.7071067690849304,
		0.0,
		0.0,
		-0.7071067690849304],
		"scale":[1.0,
		1.0,
		1.0],
		"mesh":2
	},
	{
		"name":"Polygon",
		"translation":[4.986616611480713,
		28.297704696655275,
		0.9792500138282776],
		"rotation":[-0.7071067690849304,
		0.0,
		0.0,
		-0.7071067690849304],
		"scale":[1.0,
		1.0,
		1.0],
		"mesh":3
	},
	{
		"name":"Polygon",
		"translation":[-3.2820396423339845,
		8.77907943725586,
		4.57894229888916],
		"rotation":[-0.7071067690849304,
		0.0,
		0.0,
		-0.7071067690849304],
		"scale":[1.0,
		1.0,
		1.0],
		"mesh":4
	},
	{
		"name":"Polygon",
		"translation":[-40.80582809448242,
		-28.759050369262697,
		6.768092632293701],
		"rotation":[-0.7071067690849304,
		0.0,
		0.0,
		-0.7071067690849304],
		"scale":[1.0,
		1.0,
		1.0],
		"mesh":5
	},
	{
		"name":"Polygon",
		"translation":[7.419453144073486,
		-15.220001220703125,
		-0.35323330760002139],
		"rotation":[-0.7071067690849304,
		0.0,
		0.0,
		-0.7071067690849304],
		"scale":[1.0,
		1.0,
		1.0],
		"mesh":6
	},
	{
		"name":"Polygon",
		"translation":[17.01121711730957,
		-28.597654342651368,
		9.921334266662598],
		"rotation":[-0.7071067690849304,
		0.0,
		0.0,
		-0.7071067690849304],
		"scale":[1.0,
		1.0,
		1.0],
		"mesh":7
	},
	{
		"name":"Polygon",
		"translation":[5.612764835357666,
		-28.597654342651368,
		8.10645580291748],
		"rotation":[-0.7071067690849304,
		0.0,
		0.0,
		-0.7071067690849304],
		"scale":[1.0,
		1.0,
		1.0],
		"mesh":8
	},
	{
		"name":"Polygon",
		"translation":[-40.24238967895508,
		33.03506851196289,
		10.482948303222657],
		"rotation":[-0.7071067690849304,
		0.0,
		0.0,
		-0.7071067690849304],
		"scale":[1.0,
		1.0,
		1.0],
		"mesh":9
	},
	{
		"name":"Polygon",
		"translation":[-31.549707412719728,
		20.594751358032228,
		10.902332305908204],
		"rotation":[-0.7071067690849304,
		0.0,
		0.0,
		-0.7071067690849304],
		"scale":[1.0,
		1.0,
		1.0],
		"mesh":10
	},
	{
		"name":"Polygon",
		"translation":[-42.94721603393555,
		20.594751358032228,
		-4.035756587982178],
		"rotation":[-0.7071067690849304,
		0.0,
		0.0,
		-0.7071067690849304],
		"scale":[1.0,
		1.0,
		1.0],
		"mesh":11
	}],
	"buffers":[{
		"uri":"data:application/octet-stream;base64,",
		"byteLength":22248
	},
	{
		"uri":"data:application/octet-stream;base64,",
		"byteLength":22248
	},
	{
		"uri":"data:application/octet-stream;base64,",
		"byteLength":22248
	},
	{
		"uri":"data:application/octet-stream;base64,",
		"byteLength":22248
	},
	{
		"uri":"data:application/octet-stream;base64,",
		"byteLength":22248
	},
	{
		"uri":"data:application/octet-stream;base64,",
		"byteLength":22248
	},
	{
		"uri":"data:application/octet-stream;base64,",
		"byteLength":22248
	},
	{
		"uri":"data:application/octet-stream;base64,",
		"byteLength":22248
	},
	{
		"uri":"data:application/octet-stream;base64,",
		"byteLength":22248
	},
	{
		"uri":"data:application/octet-stream;base64,",
		"byteLength":22248
	},
	{
		"uri":"data:application/octet-stream;base64,",
		"byteLength":22248
	},
	{
		"uri":"data:application/octet-stream;base64,",
		"byteLength":22248
	}],
	"meshes":[{
		"name":"Polygon",
		"primitives":[{
			"attributes":{
				"POSITION":1,
				"NORMAL":2,
				"TEXCOORD_0":3
			},
			"indices":0,
			"material":0
		}]
	},
	{
		"name":"Polygon",
		"primitives":[{
			"attributes":{
				"POSITION":5,
				"NORMAL":6,
				"TEXCOORD_0":7
			},
			"indices":4,
			"material":0
		}]
	},
	{
		"name":"Polygon",
		"primitives":[{
			"attributes":{
				"POSITION":9,
				"NORMAL":10,
				"TEXCOORD_0":11
			},
			"indices":8,
			"material":0
		}]
	},
	{
		"name":"Polygon",
		"primitives":[{
			"attributes":{
				"POSITION":13,
				"NORMAL":14,
				"TEXCOORD_0":15
			},
			"indices":12,
			"material":0
		}]
	},
	{
		"name":"Polygon",
		"primitives":[{
			"attributes":{
				"POSITION":17,
				"NORMAL":18,
				"TEXCOORD_0":19
			},
			"indices":16,
			"material":0
		}]
	},
	{
		"name":"Polygon",
		"primitives":[{
			"attributes":{
				"POSITION":21,
				"NORMAL":22,
				"TEXCOORD_0":23
			},
			"indices":20,
			"material":0
		}]
	},
	{
		"name":"Polygon",
		"primitives":[{
			"attributes":{
				"POSITION":25,
				"NORMAL":26,
				"TEXCOORD_0":27
			},
			"indices":24,
			"material":0
		}]
	},
	{
		"name":"Polygon",
		"primitives":[{
			"attributes":{
				"POSITION":29,
				"NORMAL":30,
				"TEXCOORD_0":31
			},
			"indices":28,
			"material":0
		}]
	},
	{
		"name":"Polygon",
		"primitives":[{
			"attributes":{
				"POSITION":33,
				"NORMAL":34,
				"TEXCOORD_0":35
			},
			"indices":32,
			"material":0
		}]
	},
	{
		"name":"Polygon",
		"primitives":[{
			"attributes":{
				"POSITION":37,
				"NORMAL":38,
				"TEXCOORD_0":39
			},
			"indices":36,
			"material":0
		}]
	},
	{
		"name":"Polygon",
		"primitives":[{
			"attributes":{
				"POSITION":41,
				"NORMAL":42,
				"TEXCOORD_0":43
			},
			"indices":40,
			"material":0
		}]
	},
	{
		"name":"Polygon",
		"primitives":[{
			"attributes":{
				"POSITION":45,
				"NORMAL":46,
				"TEXCOORD_0":47
			},
			"indices":44,
			"material":0
		}]
	}],
	"accessors":[{
		"bufferView":0,
		"componentType":5123,
		"type":"SCALAR",
		"count":1524,
		"min":[0],
		"byteOffset":0,
		"max":[599]
	},
	{
		"bufferView":1,
		"componentType":5126,
		"type":"VEC3",
		"count":600,
		"min":[-33.29996109008789,
		-10.0,
		-28.50909996032715],
		"byteOffset":0,
		"max":[33.29999923706055,
		10.0,
		28.508041381835939]
	},
	{
		"bufferView":1,
		"componentType":5126,
		"type":"VEC3",
		"count":600,
		"min":[-0.925916314125061,
		-1.0,
		-0.9999983906745911],
		"byteOffset":12,
		"max":[0.9245238304138184,
		1.0,
		0.9999728202819824]
	},
	{
		"bufferView":1,
		"componentType":5126,
		"type":"VEC2",
		"count":600,
		"min":[-0.002851970959454775,
		-0.0024923463352024557],
		"byteOffset":24,
		"max":[0.9873675107955933,
		0.7563461065292358]
	},
	{
		"bufferView":2,
		"componentType":5123,
		"type":"SCALAR",
		"count":1524,
		"min":[0],
		"byteOffset":0,
		"max":[599]
	},
	{
		"bufferView":3,
		"componentType":5126,
		"type":"VEC3",
		"count":600,
		"min":[-11.672361373901368,
		-10.0,
		-4.313483238220215],
		"byteOffset":0,
		"max":[11.67211627960205,
		10.0,
		4.313483238220215]
	},
	{
		"bufferView":3,
		"componentType":5126,
		"type":"VEC3",
		"count":600,
		"min":[-0.9226425886154175,
		-1.0,
		-1.0],
		"byteOffset":12,
		"max":[0.923055112361908,
		1.0,
		1.0]
	},
	{
		"bufferView":3,
		"componentType":5126,
		"type":"VEC2",
		"count":600,
		"min":[0.5031092166900635,
		-0.004210464656352997],
		"byteOffset":24,
		"max":[1.0041706562042237,
		0.27599263191223147]
	},
	{
		"bufferView":4,
		"componentType":5123,
		"type":"SCALAR",
		"count":1524,
		"min":[0],
		"byteOffset":0,
		"max":[599]
	},
	{
		"bufferView":5,
		"componentType":5126,
		"type":"VEC3",
		"count":600,
		"min":[-11.215476036071778,
		-10.0,
		-3.9439187049865724],
		"byteOffset":0,
		"max":[11.215213775634766,
		10.0,
		3.9439187049865724]
	},
	{
		"bufferView":5,
		"componentType":5126,
		"type":"VEC3",
		"count":600,
		"min":[-0.9218827486038208,
		-1.0,
		-1.0],
		"byteOffset":12,
		"max":[0.9223269820213318,
		1.0,
		1.0]
	},
	{
		"bufferView":5,
		"componentType":5126,
		"type":"VEC2",
		"count":600,
		"min":[0.02958022430539131,
		0.4948306679725647],
		"byteOffset":24,
		"max":[0.510210394859314,
		0.7564308643341065]
	},
	{
		"bufferView":6,
		"componentType":5123,
		"type":"SCALAR",
		"count":1524,
		"min":[0],
		"byteOffset":0,
		"max":[599]
	},
	{
		"bufferView":7,
		"componentType":5126,
		"type":"VEC3",
		"count":600,
		"min":[-13.680163383483887,
		-10.0,
		-9.021646499633789],
		"byteOffset":0,
		"max":[13.680323600769043,
		10.0,
		9.021303176879883]
	},
	{
		"bufferView":7,
		"componentType":5126,
		"type":"VEC3",
		"count":600,
		"min":[-0.9248705506324768,
		-1.0,
		-1.0],
		"byteOffset":12,
		"max":[0.9241666197776794,
		1.0,
		0.9999983906745911]
	},
	{
		"bufferView":7,
		"componentType":5126,
		"type":"VEC2",
		"count":600,
		"min":[-0.01052423007786274,
		-0.028539903461933137],
		"byteOffset":24,
		"max":[1.0105388164520264,
		1.0285134315490723]
	},
	{
		"bufferView":8,
		"componentType":5123,
		"type":"SCALAR",
		"count":1524,
		"min":[0],
		"byteOffset":0,
		"max":[599]
	},
	{
		"bufferView":9,
		"componentType":5126,
		"type":"VEC3",
		"count":600,
		"min":[-35.000186920166019,
		-10.0,
		-28.538320541381837],
		"byteOffset":0,
		"max":[35.00031280517578,
		10.0,
		28.537248611450197]
	},
	{
		"bufferView":9,
		"componentType":5126,
		"type":"VEC3",
		"count":600,
		"min":[-0.9252368211746216,
		-1.0,
		-1.0],
		"byteOffset":12,
		"max":[0.9236565232276917,
		1.0,
		0.9999842047691345]
	},
	{
		"bufferView":9,
		"componentType":5126,
		"type":"VEC2",
		"count":600,
		"min":[-0.020578663796186448,
		-0.0033329487778246404],
		"byteOffset":24,
		"max":[1.020552396774292,
		1.0033159255981446]
	},
	{
		"bufferView":10,
		"componentType":5123,
		"type":"SCALAR",
		"count":1524,
		"min":[0],
		"byteOffset":0,
		"max":[599]
	},
	{
		"bufferView":11,
		"componentType":5126,
		"type":"VEC3",
		"count":600,
		"min":[-15.577162742614746,
		-10.0,
		-9.06987190246582],
		"byteOffset":0,
		"max":[15.577408790588379,
		10.0,
		9.069540977478028]
	},
	{
		"bufferView":11,
		"componentType":5126,
		"type":"VEC3",
		"count":600,
		"min":[-0.9255627989768982,
		-1.0,
		-0.9999841451644898],
		"byteOffset":12,
		"max":[0.9247321486473084,
		1.0,
		0.9999728202819824]
	},
	{
		"bufferView":11,
		"componentType":5126,
		"type":"VEC2",
		"count":600,
		"min":[-0.010456675663590432,
		-0.020115263760089875],
		"byteOffset":24,
		"max":[1.0104689598083497,
		1.0200886726379395]
	},
	{
		"bufferView":12,
		"componentType":5123,
		"type":"SCALAR",
		"count":1524,
		"min":[0],
		"byteOffset":0,
		"max":[599]
	},
	{
		"bufferView":13,
		"componentType":5126,
		"type":"VEC3",
		"count":600,
		"min":[-7.999588966369629,
		-10.0,
		-4.313483238220215],
		"byteOffset":0,
		"max":[7.99946403503418,
		10.0,
		4.313483238220215]
	},
	{
		"bufferView":13,
		"componentType":5126,
		"type":"VEC3",
		"count":600,
		"min":[-0.923055112361908,
		-1.0,
		-1.0],
		"byteOffset":12,
		"max":[0.9232680201530457,
		1.0,
		1.0]
	},
	{
		"bufferView":13,
		"componentType":5126,
		"type":"VEC2",
		"count":600,
		"min":[-0.034975916147232059,
		-0.022023964673280717],
		"byteOffset":24,
		"max":[1.0349931716918946,
		1.0220239162445069]
	},
	{
		"bufferView":14,
		"componentType":5123,
		"type":"SCALAR",
		"count":1524,
		"min":[0],
		"byteOffset":0,
		"max":[599]
	},
	{
		"bufferView":15,
		"componentType":5126,
		"type":"VEC3",
		"count":600,
		"min":[-16.419124603271486,
		-10.0,
		-9.062830924987793],
		"byteOffset":0,
		"max":[16.41887855529785,
		10.0,
		9.062830924987793]
	},
	{
		"bufferView":15,
		"componentType":5126,
		"type":"VEC3",
		"count":600,
		"min":[-0.9228502511978149,
		-1.0,
		-1.0],
		"byteOffset":12,
		"max":[0.9232680201530457,
		1.0,
		1.0]
	},
	{
		"bufferView":15,
		"componentType":5126,
		"type":"VEC2",
		"count":600,
		"min":[-0.01048237457871437,
		-0.017773699015378953],
		"byteOffset":24,
		"max":[1.0104823112487794,
		1.017754077911377]
	},
	{
		"bufferView":16,
		"componentType":5123,
		"type":"SCALAR",
		"count":1524,
		"min":[0],
		"byteOffset":0,
		"max":[599]
	},
	{
		"bufferView":17,
		"componentType":5126,
		"type":"VEC3",
		"count":600,
		"min":[-12.68963623046875,
		-10.0,
		-9.062830924987793],
		"byteOffset":0,
		"max":[12.689510345458985,
		10.0,
		9.062830924987793]
	},
	{
		"bufferView":17,
		"componentType":5126,
		"type":"VEC3",
		"count":600,
		"min":[-0.9226375818252564,
		-1.0,
		-1.0],
		"byteOffset":12,
		"max":[0.9228553771972656,
		1.0,
		1.0]
	},
	{
		"bufferView":17,
		"componentType":5126,
		"type":"VEC2",
		"count":600,
		"min":[-0.03481243550777435,
		-0.01048237457871437],
		"byteOffset":24,
		"max":[1.0348303318023682,
		1.0104823112487794]
	},
	{
		"bufferView":18,
		"componentType":5123,
		"type":"SCALAR",
		"count":1524,
		"min":[0],
		"byteOffset":0,
		"max":[599]
	},
	{
		"bufferView":19,
		"componentType":5126,
		"type":"VEC3",
		"count":600,
		"min":[-7.665300369262695,
		-10.0,
		-3.9439187049865724],
		"byteOffset":0,
		"max":[7.665163993835449,
		10.0,
		3.9439187049865724]
	},
	{
		"bufferView":19,
		"componentType":5126,
		"type":"VEC3",
		"count":600,
		"min":[-0.9223244190216065,
		-1.0,
		-1.0],
		"byteOffset":12,
		"max":[0.9225546717643738,
		1.0,
		1.0]
	},
	{
		"bufferView":19,
		"componentType":5126,
		"type":"VEC2",
		"count":600,
		"min":[-0.03429818153381348,
		-0.02408771961927414],
		"byteOffset":24,
		"max":[1.034315586090088,
		1.02408766746521]
	},
	{
		"bufferView":20,
		"componentType":5123,
		"type":"SCALAR",
		"count":1524,
		"min":[0],
		"byteOffset":0,
		"max":[599]
	},
	{
		"bufferView":21,
		"componentType":5126,
		"type":"VEC3",
		"count":600,
		"min":[-15.731430053710938,
		-10.0,
		-8.49515438079834],
		"byteOffset":0,
		"max":[15.731168746948243,
		10.0,
		8.49515438079834]
	},
	{
		"bufferView":21,
		"componentType":5126,
		"type":"VEC3",
		"count":600,
		"min":[-0.922109067440033,
		-1.0,
		-1.0],
		"byteOffset":12,
		"max":[0.922553539276123,
		1.0,
		1.0]
	},
	{
		"bufferView":21,
		"componentType":5126,
		"type":"VEC2",
		"count":600,
		"min":[-0.011182844638824463,
		-0.01785466820001602],
		"byteOffset":24,
		"max":[1.0111827850341797,
		1.0178356170654297]
	},
	{
		"bufferView":22,
		"componentType":5123,
		"type":"SCALAR",
		"count":1524,
		"min":[0],
		"byteOffset":0,
		"max":[599]
	},
	{
		"bufferView":23,
		"componentType":5126,
		"type":"VEC3",
		"count":600,
		"min":[-12.125426292419434,
		-10.0,
		-8.49515438079834],
		"byteOffset":0,
		"max":[12.125288963317871,
		10.0,
		8.49515438079834]
	},
	{
		"bufferView":23,
		"componentType":5126,
		"type":"VEC3",
		"count":600,
		"min":[-0.9218772649765015,
		-1.0,
		-1.0],
		"byteOffset":12,
		"max":[0.922109067440033,
		1.0,
		1.0]
	},
	{
		"bufferView":23,
		"componentType":5126,
		"type":"VEC2",
		"count":600,
		"min":[-0.03413185477256775,
		-0.011182844638824463],
		"byteOffset":24,
		"max":[1.0341508388519288,
		1.0111827850341797]
	}],
	"bufferViews":[{
		"target":34963,
		"buffer":0,
		"byteOffset":0,
		"byteLength":3048
	},
	{
		"target":34962,
		"buffer":0,
		"byteOffset":3048,
		"byteStride":32,
		"byteLength":19200
	},
	{
		"target":34963,
		"buffer":1,
		"byteOffset":0,
		"byteLength":3048
	},
	{
		"target":34962,
		"buffer":1,
		"byteOffset":3048,
		"byteStride":32,
		"byteLength":19200
	},
	{
		"target":34963,
		"buffer":2,
		"byteOffset":0,
		"byteLength":3048
	},
	{
		"target":34962,
		"buffer":2,
		"byteOffset":3048,
		"byteStride":32,
		"byteLength":19200
	},
	{
		"target":34963,
		"buffer":3,
		"byteOffset":0,
		"byteLength":3048
	},
	{
		"target":34962,
		"buffer":3,
		"byteOffset":3048,
		"byteStride":32,
		"byteLength":19200
	},
	{
		"target":34963,
		"buffer":4,
		"byteOffset":0,
		"byteLength":3048
	},
	{
		"target":34962,
		"buffer":4,
		"byteOffset":3048,
		"byteStride":32,
		"byteLength":19200
	},
	{
		"target":34963,
		"buffer":5,
		"byteOffset":0,
		"byteLength":3048
	},
	{
		"target":34962,
		"buffer":5,
		"byteOffset":3048,
		"byteStride":32,
		"byteLength":19200
	},
	{
		"target":34963,
		"buffer":6,
		"byteOffset":0,
		"byteLength":3048
	},
	{
		"target":34962,
		"buffer":6,
		"byteOffset":3048,
		"byteStride":32,
		"byteLength":19200
	},
	{
		"target":34963,
		"buffer":7,
		"byteOffset":0,
		"byteLength":3048
	},
	{
		"target":34962,
		"buffer":7,
		"byteOffset":3048,
		"byteStride":32,
		"byteLength":19200
	},
	{
		"target":34963,
		"buffer":8,
		"byteOffset":0,
		"byteLength":3048
	},
	{
		"target":34962,
		"buffer":8,
		"byteOffset":3048,
		"byteStride":32,
		"byteLength":19200
	},
	{
		"target":34963,
		"buffer":9,
		"byteOffset":0,
		"byteLength":3048
	},
	{
		"target":34962,
		"buffer":9,
		"byteOffset":3048,
		"byteStride":32,
		"byteLength":19200
	},
	{
		"target":34963,
		"buffer":10,
		"byteOffset":0,
		"byteLength":3048
	},
	{
		"target":34962,
		"buffer":10,
		"byteOffset":3048,
		"byteStride":32,
		"byteLength":19200
	},
	{
		"target":34963,
		"buffer":11,
		"byteOffset":0,
		"byteLength":3048
	},
	{
		"target":34962,
		"buffer":11,
		"byteOffset":3048,
		"byteStride":32,
		"byteLength":19200
	}],
	"materials":[{
		"pbrMetallicRoughness":{
			"baseColorFactor":[0.23,
			0.23,
			0.23,
			1.0],
			"metallicFactor":0.0,
			"roughnessFactor":0.5
		},
		"emissiveFactor":[0.0,
		0.0,
		0.0],
		"alphaMode":"OPAQUE",
		"doubleSided":false,
		"name":"Mat"
	}]
}